<svg width="30" height="28" viewBox="0 0 30 28" fill="none" xmlns="http://www.w3.org/2000/svg">
<path d="M2.10871 1.96813C0 3.93638 0 7.1045 0 13.44V14.56C0 20.8956 0 24.0637 2.10871 26.0318C4.21754 28 7.61196 28 14.4 28H15.6C22.3881 28 25.7825 28 27.8912 26.0318C30 24.0637 30 20.8956 30 14.56V13.44C30 7.10444 30 3.93631 27.8912 1.96813C25.7825 2.08616e-07 22.3881 0 15.6 0H14.4C7.6119 0 4.21748 2.08616e-07 2.10871 1.96813ZM5.0625 8.51675H8.48752C8.60002 13.8601 11.125 16.1234 13.125 16.5901V8.51669H16.35V13.125C18.325 12.9267 20.4 10.8267 21.1 8.51669H24.325C24.0611 9.7147 23.5353 10.849 22.7804 11.8487C22.0254 12.8484 21.0576 13.692 19.9375 14.3267C21.1882 14.9062 22.2929 15.7269 23.1785 16.7345C24.0641 17.7421 24.7105 18.9136 25.075 20.1717H21.525C21.1979 19.0789 20.5322 18.1006 19.6116 17.3596C18.6909 16.6186 17.5562 16.148 16.35 16.0067V20.1717H15.9625C9.12502 20.1717 5.22502 15.7968 5.0625 8.51675Z" fill="black"/>
</svg>
