<svg width="25" height="27" viewBox="0 0 25 27" fill="none" xmlns="http://www.w3.org/2000/svg">
<path fill-rule="evenodd" clip-rule="evenodd" d="M18.853 0.695638C14.6689 -0.231879 10.3299 -0.231879 6.14571 0.695638L5.69487 0.794552C4.51791 1.0555 3.43695 1.6349 2.57205 2.46839C1.70715 3.30187 1.09218 4.35682 0.795459 5.51602C-0.265153 9.66053 -0.265153 14.0021 0.795459 18.1466C1.07843 19.2522 1.65113 20.2638 2.4555 21.0791C3.25987 21.8944 4.26731 22.4843 5.37569 22.789L5.9941 26.4501C6.01384 26.5663 6.06465 26.6752 6.14123 26.7654C6.21782 26.8556 6.31738 26.9237 6.42954 26.9628C6.54171 27.0018 6.66239 27.0103 6.77901 26.9874C6.89562 26.9645 7.00391 26.911 7.09261 26.8325L10.7246 23.6106C13.4511 23.7756 16.1873 23.5594 18.853 22.9683L19.3052 22.8694C20.4822 22.6085 21.5631 22.0291 22.428 21.1956C23.2929 20.3621 23.9079 19.3071 24.2046 18.1479C25.2651 14.0034 25.2651 9.66187 24.2046 5.51734C23.9078 4.35797 23.2926 3.30291 22.4275 2.46941C21.5623 1.6359 20.4811 1.0566 19.3039 0.79587L18.853 0.695638ZM7.26816 5.4092C7.02099 5.37352 6.76895 5.42286 6.55399 5.54899H6.53537C6.03665 5.83914 5.58714 6.20446 5.20413 6.63441C4.88495 6.99973 4.71206 7.369 4.66684 7.72509C4.64024 7.93611 4.65886 8.14976 4.72137 8.35154L4.74531 8.36473C5.10438 9.41058 5.57251 10.4169 6.14438 11.3638C6.88175 12.6938 7.78916 13.9239 8.8441 15.0236L8.87602 15.0684L8.92656 15.1054L8.95715 15.141L8.99438 15.1726C10.1072 16.2219 11.3505 17.1261 12.6942 17.8631C14.2303 18.6926 15.1625 19.0843 15.7224 19.2479V19.2558C15.886 19.3059 16.035 19.3283 16.1852 19.3283C16.6621 19.2934 17.1134 19.1011 17.4673 18.7823C17.8995 18.4025 18.2652 17.9554 18.5498 17.4582V17.4489C18.8171 16.9478 18.7267 16.4756 18.341 16.1552C17.5663 15.4839 16.7287 14.8877 15.8395 14.3747C15.2437 14.0542 14.6385 14.2481 14.3938 14.5725L13.8712 15.2267C13.6025 15.5511 13.1158 15.5063 13.1158 15.5063L13.1025 15.5142C9.47049 14.595 8.50099 10.9484 8.50099 10.9484C8.50099 10.9484 8.45577 10.4525 8.79224 10.1992L9.44656 9.67698C9.76042 9.42377 9.97852 8.82501 9.64205 8.23417C9.12818 7.35154 8.52817 6.52108 7.85066 5.75473C7.70289 5.57438 7.49566 5.45154 7.2655 5.40788L7.26816 5.4092ZM13.4044 3.82394C13.228 3.82394 13.0589 3.89342 12.9342 4.01708C12.8095 4.14075 12.7394 4.30848 12.7394 4.48337C12.7394 4.65826 12.8095 4.82598 12.9342 4.94965C13.0589 5.07331 13.228 5.14279 13.4044 5.14279C15.0867 5.14279 16.4831 5.68747 17.5883 6.732C18.1562 7.30306 18.599 7.97963 18.889 8.72082C19.1802 9.46333 19.3132 10.256 19.2786 11.0499C19.275 11.1365 19.2885 11.223 19.3185 11.3044C19.3486 11.3858 19.3945 11.4605 19.4536 11.5243C19.5731 11.6532 19.7393 11.7297 19.9156 11.737C20.092 11.7444 20.2641 11.6819 20.394 11.5635C20.524 11.445 20.6011 11.2802 20.6085 11.1053C20.6498 10.1287 20.4863 9.15418 20.1284 8.2434C19.769 7.3283 19.224 6.49608 18.5272 5.79826L18.5139 5.78507C17.1428 4.486 15.4072 3.82394 13.4044 3.82394ZM13.3592 5.99213C13.1828 5.99213 13.0137 6.0616 12.889 6.18527C12.7643 6.30893 12.6942 6.47666 12.6942 6.65155C12.6942 6.82644 12.7643 6.99417 12.889 7.11783C13.0137 7.2415 13.1828 7.31097 13.3592 7.31097H13.3818C14.5947 7.3967 15.4777 7.79763 16.0961 8.45573C16.7305 9.13362 17.059 9.97636 17.0337 11.0183C17.0297 11.1931 17.0958 11.3625 17.2177 11.489C17.3395 11.6155 17.507 11.6888 17.6834 11.6928C17.8597 11.6969 18.0305 11.6312 18.1581 11.5104C18.2856 11.3896 18.3596 11.2235 18.3636 11.0486C18.3956 9.68094 17.9514 8.50057 17.071 7.55892V7.55628C16.1706 6.5988 14.9351 6.09236 13.4483 5.99345L13.4257 5.99081L13.3592 5.99213ZM13.3339 8.2012C13.2449 8.19341 13.1552 8.20348 13.0703 8.23082C12.9853 8.25816 12.9067 8.30219 12.8393 8.3603C12.7719 8.41841 12.7169 8.48939 12.6778 8.56902C12.6386 8.64865 12.616 8.73528 12.6114 8.82375C12.6067 8.91223 12.6201 9.00072 12.6507 9.08395C12.6813 9.16718 12.7285 9.24345 12.7895 9.30819C12.8505 9.37293 12.924 9.42483 13.0056 9.46077C13.0873 9.49672 13.1754 9.51598 13.2647 9.51741C13.8206 9.54642 14.1757 9.71259 14.3992 9.93548C14.6239 10.1597 14.7915 10.5197 14.8221 11.0829C14.8237 11.1714 14.8433 11.2586 14.8797 11.3394C14.9161 11.4203 14.9685 11.493 15.0339 11.5533C15.0992 11.6136 15.1761 11.6602 15.26 11.6904C15.3439 11.7207 15.4331 11.7338 15.5222 11.7291C15.6113 11.7244 15.6986 11.702 15.7788 11.6631C15.859 11.6243 15.9304 11.5698 15.989 11.503C16.0475 11.4362 16.0919 11.3583 16.1194 11.2742C16.147 11.19 16.1571 11.1011 16.1493 11.013C16.1068 10.2217 15.8567 9.52268 15.3447 9.00833C14.8301 8.49398 14.1292 8.2434 13.3339 8.2012Z" fill="black"/>
</svg>
